<svg xmlns="http://www.w3.org/2000/svg" viewBox="0 0 1600 900" fill="none">
  <g opacity=".74">
    <circle cx="160" cy="130" r="6" fill="#00D9FF"/>
    <circle cx="432" cy="102" r="11" fill="#FF4FA3"/>
    <circle cx="760" cy="134" r="7" fill="#FFD24A"/>
    <circle cx="1088" cy="106" r="13" fill="#6A5CFF"/>
    <circle cx="1376" cy="130" r="8" fill="#3DFFB0"/>
    <circle cx="250" cy="332" r="10" fill="#FF8A00"/>
    <circle cx="642" cy="302" r="6" fill="#00D9FF"/>
    <circle cx="980" cy="338" r="12" fill="#FF4FA3"/>
    <circle cx="1322" cy="310" r="9" fill="#FFD24A"/>
    <circle cx="184" cy="566" r="8" fill="#3DFFB0"/>
    <circle cx="560" cy="540" r="12" fill="#FFD24A"/>
    <circle cx="934" cy="566" r="7" fill="#FF8A00"/>
    <circle cx="1272" cy="542" r="11" fill="#00D9FF"/>
    <circle cx="390" cy="780" r="10" fill="#6A5CFF"/>
    <circle cx="840" cy="756" r="8" fill="#3DFFB0"/>
    <circle cx="1360" cy="782" r="12" fill="#FF4FA3"/>
  </g>
  <g opacity=".7">
    <path d="M292 192l10 26 26 10-26 10-10 26-10-26-26-10 26-10z" fill="#FF4FA3"/>
    <path d="M640 214l8 20 20 8-20 8-8 20-8-20-20-8 20-8z" fill="#00D9FF"/>
    <path d="M944 200l12 30 30 12-30 12-12 30-12-30-30-12 30-12z" fill="#FFD24A"/>
    <path d="M1248 214l9 22 22 9-22 9-9 22-9-22-22-9 22-9z" fill="#6A5CFF"/>
    <path d="M1488 196l8 20 20 8-20 8-8 20-8-20-20-8 20-8z" fill="#3DFFB0"/>
    <path d="M312 470l9 22 22 9-22 9-9 22-9-22-22-9 22-9z" fill="#FFD24A"/>
    <path d="M702 468l12 30 30 12-30 12-12 30-12-30-30-12 30-12z" fill="#FF8A00"/>
    <path d="M1060 468l8 20 20 8-20 8-8 20-8-20-20-8 20-8z" fill="#00D9FF"/>
    <path d="M1388 468l10 26 26 10-26 10-10 26-10-26-26-10 26-10z" fill="#FF4FA3"/>
    <path d="M372 720l10 24 24 10-24 10-10 24-10-24-24-10 24-10z" fill="#3DFFB0"/>
    <path d="M766 734l8 20 20 8-20 8-8 20-8-20-20-8 20-8z" fill="#6A5CFF"/>
    <path d="M1124 724l10 26 26 10-26 10-10 26-10-26-26-10 26-10z" fill="#FFD24A"/>
    <path d="M1426 736l9 22 22 9-22 9-9 22-9-22-22-9 22-9z" fill="#FF8A00"/>
  </g>
</svg>
